<mxfile host="app.diagrams.net" agent="Mozilla/5.0 (X11; Linux x86_64; rv:133.0) Gecko/20100101 Firefox/133.0" version="25.0.1">
  <diagram name="Pagina-1" id="naSvZQbahFLeBqYa6nf5">
    <mxGraphModel dx="1365" dy="582" grid="1" gridSize="10" guides="1" tooltips="1" connect="1" arrows="1" fold="1" page="1" pageScale="1" pageWidth="827" pageHeight="1169" math="0" shadow="0">
      <root>
        <mxCell id="0" />
        <mxCell id="1" parent="0" />
        <mxCell id="vbb80HCj8n6G6g4HOEIQ-1" value="Contatto" style="swimlane;fontStyle=1;align=center;verticalAlign=top;childLayout=stackLayout;horizontal=1;startSize=24.17105263157895;horizontalStack=0;resizeParent=1;resizeParentMax=0;resizeLast=0;collapsible=0;marginBottom=0;" vertex="1" parent="1">
          <mxGeometry x="223" y="577" width="313" height="464.17105263157896" as="geometry" />
        </mxCell>
        <mxCell id="vbb80HCj8n6G6g4HOEIQ-2" value="-nome String" style="text;strokeColor=none;fillColor=none;align=left;verticalAlign=top;spacingLeft=4;spacingRight=4;overflow=hidden;rotatable=0;points=[[0,0.5],[1,0.5]];portConstraint=eastwest;" vertex="1" parent="vbb80HCj8n6G6g4HOEIQ-1">
          <mxGeometry y="24.17105263157895" width="313" height="24" as="geometry" />
        </mxCell>
        <mxCell id="vbb80HCj8n6G6g4HOEIQ-3" value="-cognome String" style="text;strokeColor=none;fillColor=none;align=left;verticalAlign=top;spacingLeft=4;spacingRight=4;overflow=hidden;rotatable=0;points=[[0,0.5],[1,0.5]];portConstraint=eastwest;" vertex="1" parent="vbb80HCj8n6G6g4HOEIQ-1">
          <mxGeometry y="48.171052631578945" width="313" height="24" as="geometry" />
        </mxCell>
        <mxCell id="vbb80HCj8n6G6g4HOEIQ-4" value="-List&lt;NumeroTel&gt; numeriTel" style="text;strokeColor=none;fillColor=none;align=left;verticalAlign=top;spacingLeft=4;spacingRight=4;overflow=hidden;rotatable=0;points=[[0,0.5],[1,0.5]];portConstraint=eastwest;" vertex="1" parent="vbb80HCj8n6G6g4HOEIQ-1">
          <mxGeometry y="72.17105263157895" width="313" height="24" as="geometry" />
        </mxCell>
        <mxCell id="vbb80HCj8n6G6g4HOEIQ-5" value="-List&lt;Email&gt; indirizziEmail" style="text;strokeColor=none;fillColor=none;align=left;verticalAlign=top;spacingLeft=4;spacingRight=4;overflow=hidden;rotatable=0;points=[[0,0.5],[1,0.5]];portConstraint=eastwest;" vertex="1" parent="vbb80HCj8n6G6g4HOEIQ-1">
          <mxGeometry y="96.17105263157895" width="313" height="24" as="geometry" />
        </mxCell>
        <mxCell id="vbb80HCj8n6G6g4HOEIQ-6" style="line;strokeWidth=1;fillColor=none;align=left;verticalAlign=middle;spacingTop=-1;spacingLeft=3;spacingRight=3;rotatable=0;labelPosition=right;points=[];portConstraint=eastwest;strokeColor=inherit;" vertex="1" parent="vbb80HCj8n6G6g4HOEIQ-1">
          <mxGeometry y="120.17105263157895" width="313" height="8" as="geometry" />
        </mxCell>
        <mxCell id="vbb80HCj8n6G6g4HOEIQ-7" value="+Contatto(nome: String, cognome: String)" style="text;strokeColor=none;fillColor=none;align=left;verticalAlign=top;spacingLeft=4;spacingRight=4;overflow=hidden;rotatable=0;points=[[0,0.5],[1,0.5]];portConstraint=eastwest;" vertex="1" parent="vbb80HCj8n6G6g4HOEIQ-1">
          <mxGeometry y="128.17105263157896" width="313" height="24" as="geometry" />
        </mxCell>
        <mxCell id="vbb80HCj8n6G6g4HOEIQ-8" value="+getNome() : String" style="text;strokeColor=none;fillColor=none;align=left;verticalAlign=top;spacingLeft=4;spacingRight=4;overflow=hidden;rotatable=0;points=[[0,0.5],[1,0.5]];portConstraint=eastwest;" vertex="1" parent="vbb80HCj8n6G6g4HOEIQ-1">
          <mxGeometry y="152.17105263157896" width="313" height="24" as="geometry" />
        </mxCell>
        <mxCell id="vbb80HCj8n6G6g4HOEIQ-9" value="+getCognome() : String" style="text;strokeColor=none;fillColor=none;align=left;verticalAlign=top;spacingLeft=4;spacingRight=4;overflow=hidden;rotatable=0;points=[[0,0.5],[1,0.5]];portConstraint=eastwest;" vertex="1" parent="vbb80HCj8n6G6g4HOEIQ-1">
          <mxGeometry y="176.17105263157896" width="313" height="24" as="geometry" />
        </mxCell>
        <mxCell id="vbb80HCj8n6G6g4HOEIQ-10" value="+setNome(nome: String)" style="text;strokeColor=none;fillColor=none;align=left;verticalAlign=top;spacingLeft=4;spacingRight=4;overflow=hidden;rotatable=0;points=[[0,0.5],[1,0.5]];portConstraint=eastwest;" vertex="1" parent="vbb80HCj8n6G6g4HOEIQ-1">
          <mxGeometry y="200.17105263157896" width="313" height="24" as="geometry" />
        </mxCell>
        <mxCell id="vbb80HCj8n6G6g4HOEIQ-11" value="+setCognome(cognome: String)" style="text;strokeColor=none;fillColor=none;align=left;verticalAlign=top;spacingLeft=4;spacingRight=4;overflow=hidden;rotatable=0;points=[[0,0.5],[1,0.5]];portConstraint=eastwest;" vertex="1" parent="vbb80HCj8n6G6g4HOEIQ-1">
          <mxGeometry y="224.17105263157896" width="313" height="24" as="geometry" />
        </mxCell>
        <mxCell id="vbb80HCj8n6G6g4HOEIQ-12" value="+aggiungiNumeroTel(numero: NumeroTel)" style="text;strokeColor=none;fillColor=none;align=left;verticalAlign=top;spacingLeft=4;spacingRight=4;overflow=hidden;rotatable=0;points=[[0,0.5],[1,0.5]];portConstraint=eastwest;" vertex="1" parent="vbb80HCj8n6G6g4HOEIQ-1">
          <mxGeometry y="248.17105263157896" width="313" height="24" as="geometry" />
        </mxCell>
        <mxCell id="vbb80HCj8n6G6g4HOEIQ-13" value="+aggiungiEmail(email: Email)" style="text;strokeColor=none;fillColor=none;align=left;verticalAlign=top;spacingLeft=4;spacingRight=4;overflow=hidden;rotatable=0;points=[[0,0.5],[1,0.5]];portConstraint=eastwest;" vertex="1" parent="vbb80HCj8n6G6g4HOEIQ-1">
          <mxGeometry y="272.17105263157896" width="313" height="24" as="geometry" />
        </mxCell>
        <mxCell id="vbb80HCj8n6G6g4HOEIQ-14" value="+rimuoviNumeroTel(numero: NumeroTel)" style="text;strokeColor=none;fillColor=none;align=left;verticalAlign=top;spacingLeft=4;spacingRight=4;overflow=hidden;rotatable=0;points=[[0,0.5],[1,0.5]];portConstraint=eastwest;" vertex="1" parent="vbb80HCj8n6G6g4HOEIQ-1">
          <mxGeometry y="296.17105263157896" width="313" height="24" as="geometry" />
        </mxCell>
        <mxCell id="vbb80HCj8n6G6g4HOEIQ-15" value="+rimuoviEmail(email: Email)" style="text;strokeColor=none;fillColor=none;align=left;verticalAlign=top;spacingLeft=4;spacingRight=4;overflow=hidden;rotatable=0;points=[[0,0.5],[1,0.5]];portConstraint=eastwest;" vertex="1" parent="vbb80HCj8n6G6g4HOEIQ-1">
          <mxGeometry y="320.17105263157896" width="313" height="24" as="geometry" />
        </mxCell>
        <mxCell id="vbb80HCj8n6G6g4HOEIQ-16" value="+getNomeCompleto() : String" style="text;strokeColor=none;fillColor=none;align=left;verticalAlign=top;spacingLeft=4;spacingRight=4;overflow=hidden;rotatable=0;points=[[0,0.5],[1,0.5]];portConstraint=eastwest;" vertex="1" parent="vbb80HCj8n6G6g4HOEIQ-1">
          <mxGeometry y="344.17105263157896" width="313" height="24" as="geometry" />
        </mxCell>
        <mxCell id="vbb80HCj8n6G6g4HOEIQ-17" value="+getNumeriTel() : List&lt;NumeroTel&gt;" style="text;strokeColor=none;fillColor=none;align=left;verticalAlign=top;spacingLeft=4;spacingRight=4;overflow=hidden;rotatable=0;points=[[0,0.5],[1,0.5]];portConstraint=eastwest;" vertex="1" parent="vbb80HCj8n6G6g4HOEIQ-1">
          <mxGeometry y="368.17105263157896" width="313" height="24" as="geometry" />
        </mxCell>
        <mxCell id="vbb80HCj8n6G6g4HOEIQ-18" value="+getIndirizziEmail() : List&lt;Email&gt;" style="text;strokeColor=none;fillColor=none;align=left;verticalAlign=top;spacingLeft=4;spacingRight=4;overflow=hidden;rotatable=0;points=[[0,0.5],[1,0.5]];portConstraint=eastwest;" vertex="1" parent="vbb80HCj8n6G6g4HOEIQ-1">
          <mxGeometry y="392.17105263157896" width="313" height="24" as="geometry" />
        </mxCell>
        <mxCell id="vbb80HCj8n6G6g4HOEIQ-19" value="+toString() : String" style="text;strokeColor=none;fillColor=none;align=left;verticalAlign=top;spacingLeft=4;spacingRight=4;overflow=hidden;rotatable=0;points=[[0,0.5],[1,0.5]];portConstraint=eastwest;" vertex="1" parent="vbb80HCj8n6G6g4HOEIQ-1">
          <mxGeometry y="416.17105263157896" width="313" height="24" as="geometry" />
        </mxCell>
        <mxCell id="vbb80HCj8n6G6g4HOEIQ-20" value="+compareTo(Contatto c) : int" style="text;strokeColor=none;fillColor=none;align=left;verticalAlign=top;spacingLeft=4;spacingRight=4;overflow=hidden;rotatable=0;points=[[0,0.5],[1,0.5]];portConstraint=eastwest;" vertex="1" parent="vbb80HCj8n6G6g4HOEIQ-1">
          <mxGeometry y="440.17105263157896" width="313" height="24" as="geometry" />
        </mxCell>
        <mxCell id="vbb80HCj8n6G6g4HOEIQ-21" value="NumeroTel" style="swimlane;fontStyle=1;align=center;verticalAlign=top;childLayout=stackLayout;horizontal=1;startSize=28.15;horizontalStack=0;resizeParent=1;resizeParentMax=0;resizeLast=0;collapsible=0;marginBottom=0;" vertex="1" parent="1">
          <mxGeometry x="20" y="1094" width="217" height="148.15" as="geometry" />
        </mxCell>
        <mxCell id="vbb80HCj8n6G6g4HOEIQ-22" value="-numero String" style="text;strokeColor=none;fillColor=none;align=left;verticalAlign=top;spacingLeft=4;spacingRight=4;overflow=hidden;rotatable=0;points=[[0,0.5],[1,0.5]];portConstraint=eastwest;" vertex="1" parent="vbb80HCj8n6G6g4HOEIQ-21">
          <mxGeometry y="28.15" width="217" height="28" as="geometry" />
        </mxCell>
        <mxCell id="vbb80HCj8n6G6g4HOEIQ-23" style="line;strokeWidth=1;fillColor=none;align=left;verticalAlign=middle;spacingTop=-1;spacingLeft=3;spacingRight=3;rotatable=0;labelPosition=right;points=[];portConstraint=eastwest;strokeColor=inherit;" vertex="1" parent="vbb80HCj8n6G6g4HOEIQ-21">
          <mxGeometry y="56.15" width="217" height="8" as="geometry" />
        </mxCell>
        <mxCell id="vbb80HCj8n6G6g4HOEIQ-24" value="+NumeroTel(numero: String)" style="text;strokeColor=none;fillColor=none;align=left;verticalAlign=top;spacingLeft=4;spacingRight=4;overflow=hidden;rotatable=0;points=[[0,0.5],[1,0.5]];portConstraint=eastwest;" vertex="1" parent="vbb80HCj8n6G6g4HOEIQ-21">
          <mxGeometry y="64.15" width="217" height="28" as="geometry" />
        </mxCell>
        <mxCell id="vbb80HCj8n6G6g4HOEIQ-25" value="+valido() : boolean" style="text;strokeColor=none;fillColor=none;align=left;verticalAlign=top;spacingLeft=4;spacingRight=4;overflow=hidden;rotatable=0;points=[[0,0.5],[1,0.5]];portConstraint=eastwest;" vertex="1" parent="vbb80HCj8n6G6g4HOEIQ-21">
          <mxGeometry y="92.15" width="217" height="28" as="geometry" />
        </mxCell>
        <mxCell id="vbb80HCj8n6G6g4HOEIQ-26" value="+toString() : String" style="text;strokeColor=none;fillColor=none;align=left;verticalAlign=top;spacingLeft=4;spacingRight=4;overflow=hidden;rotatable=0;points=[[0,0.5],[1,0.5]];portConstraint=eastwest;" vertex="1" parent="vbb80HCj8n6G6g4HOEIQ-21">
          <mxGeometry y="120.15" width="217" height="28" as="geometry" />
        </mxCell>
        <mxCell id="vbb80HCj8n6G6g4HOEIQ-27" value="Email" style="swimlane;fontStyle=1;align=center;verticalAlign=top;childLayout=stackLayout;horizontal=1;startSize=28.15;horizontalStack=0;resizeParent=1;resizeParentMax=0;resizeLast=0;collapsible=0;marginBottom=0;" vertex="1" parent="1">
          <mxGeometry x="287" y="1094" width="184" height="148.15" as="geometry" />
        </mxCell>
        <mxCell id="vbb80HCj8n6G6g4HOEIQ-28" value="-String indirizzo" style="text;strokeColor=none;fillColor=none;align=left;verticalAlign=top;spacingLeft=4;spacingRight=4;overflow=hidden;rotatable=0;points=[[0,0.5],[1,0.5]];portConstraint=eastwest;" vertex="1" parent="vbb80HCj8n6G6g4HOEIQ-27">
          <mxGeometry y="28.15" width="184" height="28" as="geometry" />
        </mxCell>
        <mxCell id="vbb80HCj8n6G6g4HOEIQ-29" style="line;strokeWidth=1;fillColor=none;align=left;verticalAlign=middle;spacingTop=-1;spacingLeft=3;spacingRight=3;rotatable=0;labelPosition=right;points=[];portConstraint=eastwest;strokeColor=inherit;" vertex="1" parent="vbb80HCj8n6G6g4HOEIQ-27">
          <mxGeometry y="56.15" width="184" height="8" as="geometry" />
        </mxCell>
        <mxCell id="vbb80HCj8n6G6g4HOEIQ-30" value="+Email(indirizzo: String)" style="text;strokeColor=none;fillColor=none;align=left;verticalAlign=top;spacingLeft=4;spacingRight=4;overflow=hidden;rotatable=0;points=[[0,0.5],[1,0.5]];portConstraint=eastwest;" vertex="1" parent="vbb80HCj8n6G6g4HOEIQ-27">
          <mxGeometry y="64.15" width="184" height="28" as="geometry" />
        </mxCell>
        <mxCell id="vbb80HCj8n6G6g4HOEIQ-31" value="+valido() : boolean" style="text;strokeColor=none;fillColor=none;align=left;verticalAlign=top;spacingLeft=4;spacingRight=4;overflow=hidden;rotatable=0;points=[[0,0.5],[1,0.5]];portConstraint=eastwest;" vertex="1" parent="vbb80HCj8n6G6g4HOEIQ-27">
          <mxGeometry y="92.15" width="184" height="28" as="geometry" />
        </mxCell>
        <mxCell id="vbb80HCj8n6G6g4HOEIQ-32" value="+toString() : String" style="text;strokeColor=none;fillColor=none;align=left;verticalAlign=top;spacingLeft=4;spacingRight=4;overflow=hidden;rotatable=0;points=[[0,0.5],[1,0.5]];portConstraint=eastwest;" vertex="1" parent="vbb80HCj8n6G6g4HOEIQ-27">
          <mxGeometry y="120.15" width="184" height="28" as="geometry" />
        </mxCell>
        <mxCell id="vbb80HCj8n6G6g4HOEIQ-33" value="Rubrica" style="swimlane;fontStyle=1;align=center;verticalAlign=top;childLayout=stackLayout;horizontal=1;startSize=26.125;horizontalStack=0;resizeParent=1;resizeParentMax=0;resizeLast=0;collapsible=0;marginBottom=0;" vertex="1" parent="1">
          <mxGeometry x="200" y="310" width="360" height="216.125" as="geometry" />
        </mxCell>
        <mxCell id="vbb80HCj8n6G6g4HOEIQ-34" value="-List&lt;Contatto&gt; rubrica" style="text;strokeColor=none;fillColor=none;align=left;verticalAlign=top;spacingLeft=4;spacingRight=4;overflow=hidden;rotatable=0;points=[[0,0.5],[1,0.5]];portConstraint=eastwest;" vertex="1" parent="vbb80HCj8n6G6g4HOEIQ-33">
          <mxGeometry y="26.125" width="360" height="26" as="geometry" />
        </mxCell>
        <mxCell id="vbb80HCj8n6G6g4HOEIQ-35" style="line;strokeWidth=1;fillColor=none;align=left;verticalAlign=middle;spacingTop=-1;spacingLeft=3;spacingRight=3;rotatable=0;labelPosition=right;points=[];portConstraint=eastwest;strokeColor=inherit;" vertex="1" parent="vbb80HCj8n6G6g4HOEIQ-33">
          <mxGeometry y="52.125" width="360" height="8" as="geometry" />
        </mxCell>
        <mxCell id="vbb80HCj8n6G6g4HOEIQ-36" value="+aggiunigContatto(contatto: Contatto)" style="text;strokeColor=none;fillColor=none;align=left;verticalAlign=top;spacingLeft=4;spacingRight=4;overflow=hidden;rotatable=0;points=[[0,0.5],[1,0.5]];portConstraint=eastwest;" vertex="1" parent="vbb80HCj8n6G6g4HOEIQ-33">
          <mxGeometry y="60.125" width="360" height="26" as="geometry" />
        </mxCell>
        <mxCell id="vbb80HCj8n6G6g4HOEIQ-37" value="+rimuoviContatto(contatto: Contatto) : boolean" style="text;strokeColor=none;fillColor=none;align=left;verticalAlign=top;spacingLeft=4;spacingRight=4;overflow=hidden;rotatable=0;points=[[0,0.5],[1,0.5]];portConstraint=eastwest;" vertex="1" parent="vbb80HCj8n6G6g4HOEIQ-33">
          <mxGeometry y="86.125" width="360" height="26" as="geometry" />
        </mxCell>
        <mxCell id="vbb80HCj8n6G6g4HOEIQ-38" value="+ricercaContatto(ricerca: String) : List&lt;Contatto&gt;" style="text;strokeColor=none;fillColor=none;align=left;verticalAlign=top;spacingLeft=4;spacingRight=4;overflow=hidden;rotatable=0;points=[[0,0.5],[1,0.5]];portConstraint=eastwest;" vertex="1" parent="vbb80HCj8n6G6g4HOEIQ-33">
          <mxGeometry y="112.125" width="360" height="26" as="geometry" />
        </mxCell>
        <mxCell id="vbb80HCj8n6G6g4HOEIQ-39" value="+ordinaContatti() : List&lt;Contact&gt;" style="text;strokeColor=none;fillColor=none;align=left;verticalAlign=top;spacingLeft=4;spacingRight=4;overflow=hidden;rotatable=0;points=[[0,0.5],[1,0.5]];portConstraint=eastwest;" vertex="1" parent="vbb80HCj8n6G6g4HOEIQ-33">
          <mxGeometry y="138.125" width="360" height="26" as="geometry" />
        </mxCell>
        <mxCell id="vbb80HCj8n6G6g4HOEIQ-40" value="+salvaFile(percorso: String)" style="text;strokeColor=none;fillColor=none;align=left;verticalAlign=top;spacingLeft=4;spacingRight=4;overflow=hidden;rotatable=0;points=[[0,0.5],[1,0.5]];portConstraint=eastwest;" vertex="1" parent="vbb80HCj8n6G6g4HOEIQ-33">
          <mxGeometry y="164.125" width="360" height="26" as="geometry" />
        </mxCell>
        <mxCell id="vbb80HCj8n6G6g4HOEIQ-41" value="+caricaFile(percorso: String)" style="text;strokeColor=none;fillColor=none;align=left;verticalAlign=top;spacingLeft=4;spacingRight=4;overflow=hidden;rotatable=0;points=[[0,0.5],[1,0.5]];portConstraint=eastwest;" vertex="1" parent="vbb80HCj8n6G6g4HOEIQ-33">
          <mxGeometry y="190.125" width="360" height="26" as="geometry" />
        </mxCell>
        <mxCell id="vbb80HCj8n6G6g4HOEIQ-42" value="RubricaController" style="swimlane;fontStyle=1;align=center;verticalAlign=top;childLayout=stackLayout;horizontal=1;startSize=25.75;horizontalStack=0;resizeParent=1;resizeParentMax=0;resizeLast=0;collapsible=0;marginBottom=0;" vertex="1" parent="1">
          <mxGeometry x="277" y="20" width="206" height="241.75" as="geometry" />
        </mxCell>
        <mxCell id="vbb80HCj8n6G6g4HOEIQ-43" value="-Rubrica rubrica" style="text;strokeColor=none;fillColor=none;align=left;verticalAlign=top;spacingLeft=4;spacingRight=4;overflow=hidden;rotatable=0;points=[[0,0.5],[1,0.5]];portConstraint=eastwest;" vertex="1" parent="vbb80HCj8n6G6g4HOEIQ-42">
          <mxGeometry y="25.75" width="206" height="26" as="geometry" />
        </mxCell>
        <mxCell id="vbb80HCj8n6G6g4HOEIQ-44" value="-RurbicaView view" style="text;strokeColor=none;fillColor=none;align=left;verticalAlign=top;spacingLeft=4;spacingRight=4;overflow=hidden;rotatable=0;points=[[0,0.5],[1,0.5]];portConstraint=eastwest;" vertex="1" parent="vbb80HCj8n6G6g4HOEIQ-42">
          <mxGeometry y="51.75" width="206" height="26" as="geometry" />
        </mxCell>
        <mxCell id="vbb80HCj8n6G6g4HOEIQ-45" style="line;strokeWidth=1;fillColor=none;align=left;verticalAlign=middle;spacingTop=-1;spacingLeft=3;spacingRight=3;rotatable=0;labelPosition=right;points=[];portConstraint=eastwest;strokeColor=inherit;" vertex="1" parent="vbb80HCj8n6G6g4HOEIQ-42">
          <mxGeometry y="77.75" width="206" height="8" as="geometry" />
        </mxCell>
        <mxCell id="vbb80HCj8n6G6g4HOEIQ-46" value="+handleAggiungiContatto()" style="text;strokeColor=none;fillColor=none;align=left;verticalAlign=top;spacingLeft=4;spacingRight=4;overflow=hidden;rotatable=0;points=[[0,0.5],[1,0.5]];portConstraint=eastwest;" vertex="1" parent="vbb80HCj8n6G6g4HOEIQ-42">
          <mxGeometry y="85.75" width="206" height="26" as="geometry" />
        </mxCell>
        <mxCell id="vbb80HCj8n6G6g4HOEIQ-47" value="+handleModificaContatto()" style="text;strokeColor=none;fillColor=none;align=left;verticalAlign=top;spacingLeft=4;spacingRight=4;overflow=hidden;rotatable=0;points=[[0,0.5],[1,0.5]];portConstraint=eastwest;" vertex="1" parent="vbb80HCj8n6G6g4HOEIQ-42">
          <mxGeometry y="111.75" width="206" height="26" as="geometry" />
        </mxCell>
        <mxCell id="vbb80HCj8n6G6g4HOEIQ-48" value="+handleRimuoviContatto()" style="text;strokeColor=none;fillColor=none;align=left;verticalAlign=top;spacingLeft=4;spacingRight=4;overflow=hidden;rotatable=0;points=[[0,0.5],[1,0.5]];portConstraint=eastwest;" vertex="1" parent="vbb80HCj8n6G6g4HOEIQ-42">
          <mxGeometry y="137.75" width="206" height="26" as="geometry" />
        </mxCell>
        <mxCell id="vbb80HCj8n6G6g4HOEIQ-49" value="+handleRicerca()" style="text;strokeColor=none;fillColor=none;align=left;verticalAlign=top;spacingLeft=4;spacingRight=4;overflow=hidden;rotatable=0;points=[[0,0.5],[1,0.5]];portConstraint=eastwest;" vertex="1" parent="vbb80HCj8n6G6g4HOEIQ-42">
          <mxGeometry y="163.75" width="206" height="26" as="geometry" />
        </mxCell>
        <mxCell id="vbb80HCj8n6G6g4HOEIQ-50" value="+handleSalvataggio()" style="text;strokeColor=none;fillColor=none;align=left;verticalAlign=top;spacingLeft=4;spacingRight=4;overflow=hidden;rotatable=0;points=[[0,0.5],[1,0.5]];portConstraint=eastwest;" vertex="1" parent="vbb80HCj8n6G6g4HOEIQ-42">
          <mxGeometry y="189.75" width="206" height="26" as="geometry" />
        </mxCell>
        <mxCell id="vbb80HCj8n6G6g4HOEIQ-51" value="+handleCaricamento()" style="text;strokeColor=none;fillColor=none;align=left;verticalAlign=top;spacingLeft=4;spacingRight=4;overflow=hidden;rotatable=0;points=[[0,0.5],[1,0.5]];portConstraint=eastwest;" vertex="1" parent="vbb80HCj8n6G6g4HOEIQ-42">
          <mxGeometry y="215.75" width="206" height="26" as="geometry" />
        </mxCell>
        <mxCell id="vbb80HCj8n6G6g4HOEIQ-52" value="Comparable" style="swimlane;fontStyle=1;align=center;verticalAlign=top;childLayout=stackLayout;horizontal=1;startSize=24.875;horizontalStack=0;resizeParent=1;resizeParentMax=0;resizeLast=0;collapsible=0;marginBottom=0;" vertex="1" parent="1">
          <mxGeometry x="522" y="1140" width="108" height="36.875" as="geometry" />
        </mxCell>
        <mxCell id="vbb80HCj8n6G6g4HOEIQ-53" style="line;strokeWidth=1;fillColor=none;align=left;verticalAlign=middle;spacingTop=-1;spacingLeft=3;spacingRight=3;rotatable=0;labelPosition=right;points=[];portConstraint=eastwest;strokeColor=inherit;" vertex="1" parent="vbb80HCj8n6G6g4HOEIQ-52">
          <mxGeometry y="24.875" width="108" height="12" as="geometry" />
        </mxCell>
        <mxCell id="vbb80HCj8n6G6g4HOEIQ-54" value="" style="curved=1;startArrow=diamondThin;startSize=14;startFill=1;endArrow=none;exitX=0;exitY=0.85;entryX=0.5;entryY=0;rounded=0;" edge="1" parent="1" source="vbb80HCj8n6G6g4HOEIQ-1" target="vbb80HCj8n6G6g4HOEIQ-21">
          <mxGeometry relative="1" as="geometry">
            <Array as="points">
              <mxPoint x="129" y="1069" />
            </Array>
          </mxGeometry>
        </mxCell>
        <mxCell id="vbb80HCj8n6G6g4HOEIQ-55" value="1" style="edgeLabel;resizable=0;labelBackgroundColor=none;fontSize=12;align=right;verticalAlign=top;" vertex="1" parent="vbb80HCj8n6G6g4HOEIQ-54">
          <mxGeometry x="-1" relative="1" as="geometry" />
        </mxCell>
        <mxCell id="vbb80HCj8n6G6g4HOEIQ-56" value="0..3" style="edgeLabel;resizable=0;labelBackgroundColor=none;fontSize=12;align=left;verticalAlign=bottom;" vertex="1" parent="vbb80HCj8n6G6g4HOEIQ-54">
          <mxGeometry x="1" relative="1" as="geometry" />
        </mxCell>
        <mxCell id="vbb80HCj8n6G6g4HOEIQ-57" value="" style="curved=1;startArrow=diamondThin;startSize=14;startFill=1;endArrow=none;exitX=0.5;exitY=1;entryX=0.5;entryY=0;rounded=0;" edge="1" parent="1" source="vbb80HCj8n6G6g4HOEIQ-1" target="vbb80HCj8n6G6g4HOEIQ-27">
          <mxGeometry relative="1" as="geometry">
            <Array as="points" />
          </mxGeometry>
        </mxCell>
        <mxCell id="vbb80HCj8n6G6g4HOEIQ-58" value="1" style="edgeLabel;resizable=0;labelBackgroundColor=none;fontSize=12;align=right;verticalAlign=top;" vertex="1" parent="vbb80HCj8n6G6g4HOEIQ-57">
          <mxGeometry x="-1" relative="1" as="geometry" />
        </mxCell>
        <mxCell id="vbb80HCj8n6G6g4HOEIQ-59" value="0..3" style="edgeLabel;resizable=0;labelBackgroundColor=none;fontSize=12;align=left;verticalAlign=bottom;" vertex="1" parent="vbb80HCj8n6G6g4HOEIQ-57">
          <mxGeometry x="1" relative="1" as="geometry" />
        </mxCell>
        <mxCell id="vbb80HCj8n6G6g4HOEIQ-60" value="" style="curved=1;startArrow=diamondThin;startSize=14;startFill=1;endArrow=none;exitX=0.5;exitY=1;entryX=0.5;entryY=0;rounded=0;" edge="1" parent="1" source="vbb80HCj8n6G6g4HOEIQ-33" target="vbb80HCj8n6G6g4HOEIQ-1">
          <mxGeometry relative="1" as="geometry">
            <Array as="points" />
          </mxGeometry>
        </mxCell>
        <mxCell id="vbb80HCj8n6G6g4HOEIQ-61" value="1" style="edgeLabel;resizable=0;labelBackgroundColor=none;fontSize=12;align=right;verticalAlign=top;" vertex="1" parent="vbb80HCj8n6G6g4HOEIQ-60">
          <mxGeometry x="-1" relative="1" as="geometry" />
        </mxCell>
        <mxCell id="vbb80HCj8n6G6g4HOEIQ-62" value="*" style="edgeLabel;resizable=0;labelBackgroundColor=none;fontSize=12;align=left;verticalAlign=bottom;" vertex="1" parent="vbb80HCj8n6G6g4HOEIQ-60">
          <mxGeometry x="1" relative="1" as="geometry" />
        </mxCell>
        <mxCell id="vbb80HCj8n6G6g4HOEIQ-63" value="" style="curved=1;startArrow=none;endArrow=open;endSize=12;exitX=0.5;exitY=1;entryX=0.5;entryY=0;rounded=0;" edge="1" parent="1" source="vbb80HCj8n6G6g4HOEIQ-42" target="vbb80HCj8n6G6g4HOEIQ-33">
          <mxGeometry relative="1" as="geometry">
            <Array as="points" />
          </mxGeometry>
        </mxCell>
        <mxCell id="vbb80HCj8n6G6g4HOEIQ-64" value="1" style="edgeLabel;resizable=0;labelBackgroundColor=none;fontSize=12;align=right;verticalAlign=top;" vertex="1" parent="vbb80HCj8n6G6g4HOEIQ-63">
          <mxGeometry x="-1" relative="1" as="geometry" />
        </mxCell>
        <mxCell id="vbb80HCj8n6G6g4HOEIQ-65" value="1" style="edgeLabel;resizable=0;labelBackgroundColor=none;fontSize=12;align=left;verticalAlign=bottom;" vertex="1" parent="vbb80HCj8n6G6g4HOEIQ-63">
          <mxGeometry x="1" relative="1" as="geometry" />
        </mxCell>
        <mxCell id="vbb80HCj8n6G6g4HOEIQ-66" value="" style="curved=1;dashed=1;startArrow=none;endArrow=block;endSize=16;endFill=0;exitX=1;exitY=0.94;entryX=0.5;entryY=-0.01;rounded=0;" edge="1" parent="1" source="vbb80HCj8n6G6g4HOEIQ-1" target="vbb80HCj8n6G6g4HOEIQ-52">
          <mxGeometry relative="1" as="geometry">
            <Array as="points">
              <mxPoint x="575" y="1069" />
            </Array>
          </mxGeometry>
        </mxCell>
      </root>
    </mxGraphModel>
  </diagram>
</mxfile>
